<svg xmlns="http://www.w3.org/2000/svg" width="247.506" height="56" viewBox="0 0 247.506 56">
  <g id="full-rgb" transform="translate(0 0.001)">
    <g id="Group_1" data-name="Group 1" transform="translate(0 -0.001)">
      <path id="fullLogo" d="M23.355,9.253a5.744,5.744,0,0,0,2.7.627,5.932,5.932,0,0,0,2.457-.486,4.565,4.565,0,0,0,1.782-1.4L28.282,6.2A2.58,2.58,0,0,1,26.218,7.3a2.109,2.109,0,0,1-1.607-.641A2.4,2.4,0,0,1,24,4.94a2.4,2.4,0,0,1,.607-1.721,2.11,2.11,0,0,1,1.607-.64,2.581,2.581,0,0,1,2.065,1.107l2.011-1.8a4.567,4.567,0,0,0-1.782-1.4A5.933,5.933,0,0,0,26.055,0a5.739,5.739,0,0,0-2.7.627,4.69,4.69,0,0,0-1.883,1.755,4.845,4.845,0,0,0-.682,2.558A4.845,4.845,0,0,0,21.472,7.5a4.689,4.689,0,0,0,1.883,1.755Z" transform="translate(6.377 0.001)" fill="#f1b434"/>
      <rect id="fullLogo-2" data-name="fullLogo" width="3.186" height="9.449" transform="translate(38.896 0.217)" fill="#f1b434"/>
      <path id="fullLogo-3" data-name="fullLogo" d="M36.551,9.614h3.186V2.636H42.5V.165h-8.72V2.636h2.768Z" transform="translate(10.362 0.052)" fill="#f1b434"/>
      <path id="fullLogo-4" data-name="fullLogo" d="M48.859.165,46.916,3.432,44.985.165H41.624l3.563,5.98V9.614h3.186V6.186L51.937.165Z" transform="translate(12.767 0.052)" fill="#f1b434"/>
      <path id="fullLogo-5" data-name="fullLogo" d="M57.294,9.247a6.237,6.237,0,0,0,5.481,0A4.734,4.734,0,0,0,65.366,4.94,4.734,4.734,0,0,0,62.774.634a6.237,6.237,0,0,0-5.481,0A4.73,4.73,0,0,0,54.7,4.94a4.73,4.73,0,0,0,2.591,4.306Zm.9-5.555a2.083,2.083,0,0,1,.763-.823,2.131,2.131,0,0,1,2.146,0,2.081,2.081,0,0,1,.762.823,2.619,2.619,0,0,1,.284,1.248,2.619,2.619,0,0,1-.284,1.249,2.079,2.079,0,0,1-.762.823,2.131,2.131,0,0,1-2.146,0,2.081,2.081,0,0,1-.763-.823,2.628,2.628,0,0,1-.283-1.249A2.628,2.628,0,0,1,58.2,3.692Z" transform="translate(16.778 0.001)" fill="#f1b434"/>
      <path id="fullLogo-6" data-name="fullLogo" d="M67.972,6.59h3.941v-2.4H67.972V2.568h4.5V.165H64.786V9.614h3.186Z" transform="translate(19.872 0.052)" fill="#f1b434"/>
      <g id="logoMark" transform="translate(0 0.001)">
        <path id="logoMark_CompoundPathItem_" data-name="logoMark &lt;CompoundPathItem&gt;" d="M22.147,20.21V0H0V20.21L0,41.3l2.629-1a36.9,36.9,0,0,1,11.726-2.025A36.9,36.9,0,0,1,26.08,40.29,40.211,40.211,0,0,0,39.2,42.573a40.208,40.208,0,0,0,13.114-2.282l1.242-.478V20.866l-31.4,13.051Zm27.529,6.463V37.085A37.333,37.333,0,0,1,39.2,38.7a36.915,36.915,0,0,1-11.724-2.024c-.056-.022-.412-.157-1.014-.351Zm-31.4-6.463v14.4a36.981,36.981,0,0,0-3.915-.217,40.724,40.724,0,0,0-10.482,1.45V3.875h14.4Z" transform="translate(0)" fill="#fff"/>
        <path id="logoMark_PathItem_" data-name="logoMark &lt;PathItem&gt;" d="M27.471,35.191a40.219,40.219,0,0,0-13.114-2.282A46.464,46.464,0,0,0,0,35.608l0,4.057c.053-.02,8-2.881,14.355-2.881A36.9,36.9,0,0,1,26.08,38.808,40.221,40.221,0,0,0,39.2,41.09a46.419,46.419,0,0,0,14.356-2.7V34.355c-.052.02-8,2.86-14.356,2.86a36.9,36.9,0,0,1-11.724-2.024Z" transform="translate(0 10.094)" fill="#fff"/>
      </g>
      <path id="fullLogo-7" data-name="fullLogo" d="M51.454,12.036l-4.3,1.786V42.638H63.707v-4.3H51.454Z" transform="translate(14.464 3.693)" fill="#fff"/>
      <path id="fullLogo-8" data-name="fullLogo" d="M70.569,19.3a9.9,9.9,0,0,0-7.724,3.386A11.937,11.937,0,0,0,60.41,30.14,11.417,11.417,0,0,0,62.845,37.6a10.288,10.288,0,0,0,7.724,3.386,9.863,9.863,0,0,0,7.839-3.31,10.524,10.524,0,0,0,1.179-1.712l-4.261-1.828a6.833,6.833,0,0,1-.495.837,5.255,5.255,0,0,1-4.262,1.978,5.331,5.331,0,0,1-4.3-1.978,7.367,7.367,0,0,1-1.256-3.653h15.6c.038-.381.076-.8.076-1.179a11.635,11.635,0,0,0-2.435-7.458A9.7,9.7,0,0,0,70.569,19.3Zm-5.4,8.6a6.083,6.083,0,0,1,1.1-2.587,5.117,5.117,0,0,1,4.3-1.979,5.046,5.046,0,0,1,4.262,1.979,6.081,6.081,0,0,1,1.1,2.587Z" transform="translate(18.527 5.918)" fill="#fff"/>
      <path id="fullLogo-9" data-name="fullLogo" d="M82.394,14.489H78.133V33.629a11.967,11.967,0,0,0,.875,5.518,5.978,5.978,0,0,0,4.071,2.892,12.972,12.972,0,0,0,5.4-.152V38.157a12.759,12.759,0,0,1-3.387.114A2.851,2.851,0,0,1,82.889,36.9a6.892,6.892,0,0,1-.495-3.539v-8.4h6.088V21.22H82.394Z" transform="translate(23.954 4.445)" fill="#fff"/>
      <path id="fullLogo-10" data-name="fullLogo" d="M103.793,22.823A9.058,9.058,0,0,0,97.7,20.806a9.24,9.24,0,0,0-5.669,2.169l-.114.114v-8.6H88.116v27.4h4.3V32.906a21.049,21.049,0,0,1,.266-4,4.99,4.99,0,0,1,1.636-2.968,5.326,5.326,0,0,1,6.354.115c1.446,1.255,1.751,3.31,1.751,5.631v10.2h4.338v-10.2C106.8,28.035,106.38,25.068,103.793,22.823Z" transform="translate(27.027 4.445)" fill="#fff"/>
      <path id="fullLogo-11" data-name="fullLogo" d="M115.163,20.768a9.392,9.392,0,0,0-5.746,1.9V14.49h-4.3v27.4h3.806V40.136a8.965,8.965,0,0,0,6.354,2.321,9.067,9.067,0,0,0,7.116-3.31,11.751,11.751,0,0,0,2.321-7.534,12.339,12.339,0,0,0-2.321-7.572A9.209,9.209,0,0,0,115.163,20.768Zm3.805,15.753a5.111,5.111,0,0,1-4.3,2.093,5.429,5.429,0,0,1-4.223-1.789,8.228,8.228,0,0,1-1.522-5.212,8.342,8.342,0,0,1,1.522-5.251,5.085,5.085,0,0,1,4.071-1.75,5.014,5.014,0,0,1,4.414,2.055,8.693,8.693,0,0,1,1.256,4.946,8.559,8.559,0,0,1-1.218,4.908Z" transform="translate(32.242 4.445)" fill="#fff"/>
      <path id="fullLogo-12" data-name="fullLogo" d="M132.246,19.326a7.064,7.064,0,0,0-4.033,1.294,6.816,6.816,0,0,0-2.017,2.169v-2.93h-3.805V40.406h4.3V29.9a6.808,6.808,0,0,1,1.6-5.136,5.16,5.16,0,0,1,3.577-1.446,8.771,8.771,0,0,1,3.577.495v-4a7.808,7.808,0,0,0-3.2-.495Z" transform="translate(37.54 5.925)" fill="#fff"/>
      <rect id="fullLogo-13" data-name="fullLogo" width="4.3" height="20.547" transform="translate(175.238 25.784)" fill="#fff"/>
      <path id="fullLogo-14" data-name="fullLogo" d="M154.93,22.67a9.392,9.392,0,0,0-5.745-1.9,9.132,9.132,0,0,0-7.192,3.272,12.128,12.128,0,0,0-2.359,7.572,11.564,11.564,0,0,0,2.359,7.534,8.991,8.991,0,0,0,7.077,3.31,9.233,9.233,0,0,0,6.393-2.321v1.75h3.767v-27.4h-4.3ZM153.9,36.825a5.349,5.349,0,0,1-4.185,1.789,5.133,5.133,0,0,1-4.338-2.093,8.559,8.559,0,0,1-1.218-4.908,8.7,8.7,0,0,1,1.294-4.946,4.99,4.99,0,0,1,4.376-2.055,5.085,5.085,0,0,1,4.071,1.75,8.131,8.131,0,0,1,1.56,5.251,8.022,8.022,0,0,1-1.559,5.212Z" transform="translate(42.826 4.445)" fill="#fff"/>
      <path id="fullLogo-15" data-name="fullLogo" d="M172.479,21.653a9.355,9.355,0,0,0-6.278-2.359,9.132,9.132,0,0,0-7.192,3.272,12.127,12.127,0,0,0-2.359,7.572,11.564,11.564,0,0,0,2.359,7.534,8.991,8.991,0,0,0,7.079,3.31,9.3,9.3,0,0,0,5.859-1.865v2.017a3.95,3.95,0,0,1-1.484,3.729,6.291,6.291,0,0,1-3.805,1.179,4.923,4.923,0,0,1-3.234-1.179,4.042,4.042,0,0,1-.989-1.141l-3.957,1.9a7.947,7.947,0,0,0,3.12,2.93,8.881,8.881,0,0,0,5.023,1.522,10.943,10.943,0,0,0,6.05-1.636c2.473-1.56,3.577-3.958,3.577-7.268V19.865H172.48Zm-1.56,13.7a5.349,5.349,0,0,1-4.185,1.789,5.132,5.132,0,0,1-4.338-2.093,8.559,8.559,0,0,1-1.218-4.908,8.7,8.7,0,0,1,1.294-4.946,4.99,4.99,0,0,1,4.376-2.055,5.085,5.085,0,0,1,4.071,1.75,8.131,8.131,0,0,1,1.56,5.251,8.022,8.022,0,0,1-1.56,5.212Z" transform="translate(48.045 5.918)" fill="#fff"/>
      <path id="fullLogo-16" data-name="fullLogo" d="M194.168,30.14a11.635,11.635,0,0,0-2.435-7.458,9.7,9.7,0,0,0-7.686-3.386,9.9,9.9,0,0,0-7.724,3.386,11.933,11.933,0,0,0-2.435,7.458,11.413,11.413,0,0,0,2.435,7.458,10.288,10.288,0,0,0,7.724,3.386,9.862,9.862,0,0,0,7.838-3.31,10.523,10.523,0,0,0,1.179-1.712L188.8,34.134a6.83,6.83,0,0,1-.495.837,5.256,5.256,0,0,1-4.262,1.978,5.331,5.331,0,0,1-4.3-1.978,7.363,7.363,0,0,1-1.255-3.653h15.6C194.129,30.938,194.168,30.52,194.168,30.14Zm-15.525-2.245a6.079,6.079,0,0,1,1.1-2.587,5.117,5.117,0,0,1,4.3-1.979,5.046,5.046,0,0,1,4.262,1.979,6.083,6.083,0,0,1,1.1,2.587Z" transform="translate(53.334 5.918)" fill="#fff"/>
      <path id="fullLogo-17" data-name="fullLogo" d="M138.389,14.478a2.9,2.9,0,0,0-2-.719,2.814,2.814,0,0,0-2,.754,2.584,2.584,0,0,0,0,3.749,2.81,2.81,0,0,0,2,.754,2.728,2.728,0,0,0,2.015-.789,2.642,2.642,0,0,0,.788-1.945,2.317,2.317,0,0,0-.806-1.8Z" transform="translate(40.975 4.221)" fill="#fff"/>
    </g>
  </g>
</svg>
